<svg xmlns="http://www.w3.org/2000/svg" width="221" height="501" viewBox="0 0 221 501"><g><g clip-path="url(#clip-5DDF1C3A-8521-D268-C370-4177FEB9362D)" opacity=".1"><path fill="#fefefe" d="M427.64 371.7c14.778 12.543 8.867 32.256 3.774 40.231-5.408 8.488-16.511 16.444-24.273 17.873-7.16 1.318-4.698-4.285-.61-8.451 6.746-6.895 5.551-16.994.916-20.089-5.732-3.836-10.555.138-13.718-11.124-5.273-18.752 19.278-30.041 33.912-18.44m6.685 132.191c7.449-14.132 3.166-53.093-9.186-43.344-3.976 3.134-9.923 10.488-15.33 23.863-10.867-.5-16.625-.81-24.686-7.69-1.484 4.602 10.643 12.41 19.648 15.226-6.864.537-13.413-.173-19.369-4.456.117 5.103 9.986 10.068 19.46 11.608a71.534 71.534 0 0 0-.477 1.777c-6.676.957-13.459.529-18.713-2.624 1.314 5.102 8.673 8.228 17.165 8.938-.27 1.149-.522 2.315-.764 3.508-6.001.784-11.858.447-16.14-1.685 3.895 6.05 15.042 8.72 27.304 5.804 7.944-1.066 17.624-4.51 21.088-10.925m-14.291 102.85c-44.437 18.371-64.076-14.012-66.46-56.475-9.533-4.032-12.716-23.882-11.225-32.475 1.683-9.67 12.4.046 13.109-4.661 3.21-21.629 10.333-44.16 25.606-62.231 18.339-23.517 46.21-8.465 62.712-35.385 9.115-24.319 38.087 13.592 28.19 67.768-1.856 26.646-14.427 62.395-68.251 73.615-.555 10.646 1.155 16.31 21.313 8.676 9.206-3.494 23.523-10.92 37.641-22.541 9.88-8.137 5.058 19.959-4.102 31.571-6.632 8.42-20.731 24.794-38.533 32.137m-167.35-219.25c-8.667-10.839 16.805.173 60.29-24.291 30.51-17.178 66.976-17.761 72.969 20.93 1.536 24.456-28.691 46.506-44.06 27.552a33.78 33.78 0 0 1-1.454-1.949 5.218 5.218 0 0 0-.928-2.495c5.093.728 11.73-16.577 3.11-22.325-16.178-10.793-35.083-2.941-39.085 12.597 4.384-4.08 10.631-5.866 17.006-6.002a39.728 39.728 0 0 0-3.12 5.701c-7.047 3.161-12.694 8.48-13.604 14.774 3.074-3.325 6.784-5.42 10.713-6.594a62.32 62.32 0 0 0-1.455 7.14c-5.211 4.3-9.067 9.537-8.985 13.927 2.946-3.689 6.093-6.13 9.385-7.733.364 1.676.791 3.051 1.282 4.19-6.275 6.257-11.576 13.953-10.385 18.007 6.675-9.692 11.85-12.224 20.234-14.838a56.555 56.555 0 0 1 6.183-1.42c.455.009.891-.073 1.31-.2 11.812-1.586 19.233 2.759 19.86 15.046 1.037 20.229 3.32 41.014-1.827 39.638-6.348-1.685-26.3 5.247-26.79 9.837-.392 3.67-.728 6.868-.992 10.393 6.62 57.172 16.915 114.088 10.358 127.66-17.187 7.423-65.602 6.066-65.029-1.039 10.321-10.183 11.895-55.396 10.121-115.154-1.791-5.046-5.329-8.653-8.975-7.105-4.765 2.022-4.665-.391-7.839 1.376-3.865 2.15-2.5-17.533-2.4-28.855.036-4.527 2.81-8.543 13.376-16.467.7-.547 1.337-1.184 1.9-1.922-3.919-30.995-10.739-57.354-21.17-70.379m-30.838 117.181c-3.902 6.475-8.14 10.93-12.569 14.286.027-1.31.018-2.619-.018-3.892 7.169-9.603 13.757-21.251 12.514-25.316-4.646 8.611-8.557 13.577-13.222 17.787-.78-4.983-2.196-9.367-4.247-12.677-6.779-11.012-17.95-6.047-24.947 11.076-6.996 17.142-7.16 39.975-.372 50.988 2.795 4.528 6.325 6.356 10 5.756 9.411 2.764 29.294-12.804 33.015-28.2-4.937 6.612-12.088 11.277-19.184 13.932.38-.818.753-1.673 1.116-2.564a62.65 62.65 0 0 0 1.18-3.101c8.448-6.438 15.654-15.386 16.815-23.17a43.443 43.443 0 0 1-14.156 13.285 84.52 84.52 0 0 0 .916-5.629c7.17-7.71 13.195-17.014 13.159-22.56m33.144 98.265c-2.64 9.046-36.157-12.78-57.453-1.517-15.206 18.42-32.809 26.386-46.673 18.62-21.821-12.217-26.176-58.721-9.717-103.845 15.778-43.262 44.958-69.576 66.562-60.901a29.182 29.182 0 0 0-1.452-1.544c-20.306-20.092-52.172 9.673-69.81 24.687-29.09 24.76-52.744 24.006-43.362-30.373 4.383-18.902 5.662 13.515 40.204-6.486 28.563-16.521 35.132-38.993 64.965-40.519 58.206-2.96 52.725 105.553 50.929 128.751-4.228 54.37 6.188 67.686 5.807 73.127M101.536 77.567c-2.088-.027-3.825 1.72-3.843 3.888-.027 2.16 1.665 3.951 3.753 3.978 2.106.018 3.834-1.728 3.861-3.888.027-2.178-1.665-3.96-3.771-3.978m108.937 157.106c2.437 5.265 29.368-2.323 33.178-8.673 4.063 30.982 1.49 138.815-44.283 149 14.58-12.344 24.566-35.975 26.922-52.737l-.172.073v-.027c-6.843 21.672-28.899 49.102-43.533 50.477 13.18-10.048 21.658-25.58 26.542-39.664-10.382 17.136-33.684 38.717-43.335 37.45 9.742-6.65 16.45-14.42 21.731-22.829-5.66 4.227-33.612 23.677-38.523 20.607 17.199-10.422 26.48-23.258 37.494-39.846.569-2.323 1.923-4.391 3.593-5.94 12.333-23.84 22.796-55.68 20.386-87.891m27.613-81.241c-1.526-.792-2.543-5.057 4.84-6.44 7.218-1.364 18.595-2.192 23.997-1.255 2.688.455 5.058 1.064 7.164 1.774a8.506 8.506 0 0 0 2.842 1.973c11.632 10.714 17.552 15.798 22.255 29.814 2.797-2.174-.517-11.824-5.393-20.937.59-1.073 1.162-2.137 1.752-3.192 3.678 3.847 6.81 8.294 9.035 13.77 1.807-3.466-1.299-11.033-6.365-18.563.772-1.365 1.552-2.72 2.333-4.066 3.896 3.61 7.219 7.713 9.443 12.278 1-4.383-1.888-10.577-6.755-16.744.935-1.5 1.87-2.992 2.833-4.447 3.886 3.338 7.173 7.021 9.316 10.832.363-4.848-2.143-10.06-6.429-15.052 12.34-17.29 28.039-30.033 53.853-29.132 7.6.264 25.342.41 29.873 22.365 3.468 23.493-21.91 47.831-43.965 32.542-8.299-5.757-4.549-12.387-10.642-12.797-13.62-.918-16.107 19.992-19.74 31.615-14.6 46.685-12.148 129.797 3.678 151.689 7.636 10.568-54.697 31.16-68.816 31.515-21.238.545-12.485-7.477-9.988-12.079 20.266-37.445 30.999-141.047 9.497-183.067-4.022-7.849-9.316-9.65-14.618-12.396m179.22 94.06c-.333-2.925-.837-5.616-1.611-7.983.459 2.88.999 5.517 1.61 7.983m-1.753 44.431c.045-1.257.108-2.532.17-3.843-7.905-15.412-13.338-34.185-9.443-39.568 1.853 9.746 5.585 17.962 10.316 25.431.162-2.396.306-4.782.405-7.141-3.796-13.226-5.81-26.734-2.725-29.63-1.583-3.58-3.93-6.14-7.34-7.269-28.871-9.555-39.322 18.964-34.996 38.967 4.101 19 19.373 35.314 30.68 39.13-9.616-12.716-15.56-26.233-13.34-36.06 3.634 12.004 13.195 24.893 23.359 34.785a8.172 8.172 0 0 0 1.502-2.195c-11.477-15.54-19.86-35.223-16.352-44.295 2.851 11.586 9.84 22.534 17.764 31.688m10.08-217.912c42.808 1.046 48.828 46.238 50.088 68.034 3.88 66.825-34.296 174.038-8.223 217.266 2.747 4.557 11.668 8.678 4.452 14.436-.463.373-11.496 4.522-30.162-4.684-18.485-9.106-48.62-35.423-77.395-33.394-42.781 3.002-45.836-100.565-24.36-134.832 21.46-34.267 56.934-35.914 82.87-7.259 3.636-29.774 1.034-63.995-18.974-87.829-10.28-12.226-25.112-11.543-27.823-17.63-5.856-13.098 38.33-14.254 49.527-14.108M105.58 181c-5.426 15.328-11.592 29.855-18.316 43.918 2.56-3.406 5.093-7.177 7.68-11.458.694.71.92 1.84.757 3.306a145.393 145.393 0 0 0 6.282-9.563c4.994 5.128-14.043 31.823-30.926 49.192l-.973 1.776c5.769-3.516 11.33-7.314 16.558-11.595a97.806 97.806 0 0 0 12.836-15.2c.207.81.225 1.73.072 2.76a96.19 96.19 0 0 0 6.967-9.018c2.083 8.234-15.008 28.972-33.423 44.52a192.244 192.244 0 0 1-10.077 8.77c11.267-5.182 22.868-11.858 32.837-19.973 2.975-2.897 5.715-5.939 8.158-9.154a12.578 12.578 0 0 1-.244 2.04c2.641-2.64 5.084-5.4 7.274-8.288-.288 8.68-10.5 21.158-24.355 32.707-7.95 7.55-17.865 15.082-28.087 21.303 15.405-5.638 32.477-14.536 45.466-25.02a73.617 73.617 0 0 0 4.48-4.817c-.073.4-.18.82-.27 1.23 2.694-2.433 5.155-4.937 7.31-7.487-1.695 8.97-9.33 18.452-20.2 27.25C83.865 299.54 66.297 310.24 48 318c34.613-4.363 77.176-22.97 89.21-61.942 5.85-18.981-22.373-65.504-31.63-75.058M76 66.962C81.109 76.69 83.49 84.543 85.834 95c1.931-3.332 4.76-6.269 7.81-8.818-1.41-1.522-2.28-3.692-2.253-6.08.055-4.566 3.379-8.24 7.407-8.195 3.315.036 6.08 2.567 6.931 5.98 3.27-1.99 5.476-3.368 5.256-4.16C106.837 58.882 88.14 67.62 76 66.961M90.493-47.04c.027 1.44.11 2.889.228 4.338-7.833 3.505-14.466 9.62-15.457 16.376 4.558-5.28 10.517-7.89 16.521-8.84.173.851.337 1.685.528 2.509-8.516 4.945-16.904 13.749-16.785 19.998 5.422-7.218 11.554-10.099 18.031-11.502C85.217-17.885 74.181-4.353 75.801 1c7.505-11.512 13.018-13.396 23.926-17.59 6.05 2.564 14.538 2.872 21.298-1.358 19.932-12.526 8.633-28.268-1.91-32.525-.592-1.187-1.775-2.274-3.767-3.016C99.773-59.331 78.83-55.038 75-39.985c4.012-4.085 9.67-6.295 15.493-7.055m50.7-36.565c44.172 24.647 30.992 149.411 12.963 125.6-27.862-36.794-84.419-4.473-98.893-32.693-5.337-14.656-5.708-56.795-1.746-88.107 4.189-23.61-20-1.118-18.445-23.41 1.954-27.994 55.589-54.16 73.075-58.06 33.842-7.573 72.388 45.95 33.046 76.67m22.25 229.97c26.851-61.946 22.988-297.356 3.247-310.45-.762-7.507 46.03-23.148 63.45-21.838 9.62 16.988-1.67 175.94-8.452 234.574-5.74-2.848-10.827-6.915-16.604-13.994-1.967 5.004 6.012 14.722 15.534 22.656a90.113 90.113 0 0 0-.562 5.669c-5.64-2.084-10.973-5.341-15.87-10.491-.29 5.932 6.638 13.23 15.67 18.98.09 2.63.308 5.141.635 7.544-6.357-1.538-12.324-4.286-17.193-8.69 1.179 7.498 9.131 14.022 19.333 18.18.87 2.711 1.95 5.195 3.2 7.425-8.895-.655-17.382-3.067-23.413-7.78 4.815 16.36 26.325 26.242 48.152 21.028 1.777-.228 3.6-.646 5.486-1.238 3.128-.991 5.005-1.956 6.012-2.975l.072-.036c13.448-6.816 3.79-28.362-4.062-27.616 1.877-2.056 1.913-4.568.852-6.66 16.232-21.383 48.124-6.615 48.07 16.633-.118 46.932-56.313 45.486-95.278 49.089-37.115 3.43-55.17 25.896-48.278 9.99m195.85-293.472c-15.527 28.035-17.552 117.45-11.207 183.68 2.142 22.326 12.608 27.205 14.425 30.36.579.995.624 2.053.235 3.138-9.879-5.162-15.907-9.148-22.768-19.326-2.711 3.703 7.783 16.745 17.345 24.99-.307.2-.624.383-.94.583-7.077-3.119-13.54-7.323-18.79-14.109-.841 4.05 4.799 11.017 12.246 17.146a45.664 45.664 0 0 1-5.703 1.67c-3.353-2.053-6.408-4.488-8.93-7.352.127 2.572 1.627 5.363 4.067 8.154-6.932.702-13.385-.648-16.115-5.573-3.172-5.709-6.01-16.544-8.46-30.634-33.912 29.622-78.29-24.451-70.88-76.08 4.294-29.924 10.856-87.663 9.247-105.228-2.015-21.861 30.631-3.503 41.532 2.435-10.205 27.652-17.363 69.668-14.136 95.497 3.877 31.035 23.355 40.557 26.166 5.326-.57-9.695-1.013-19.527-1.338-29.267-1.59-18.185-3.28-46.804.127-71.091.433-8.956 1.048-17.037 1.862-23.922 11.189-15.988 47.442-2.417 52.016 9.603m64.308 83.548c4.819-16.205-3.212-59.052-18.2-47.486-3.59 2.78-6.424 12.259-8.21 23.953-9.908-.529-15.566-1.24-24.156-8.869-.83 5.396 12.434 14.51 21.854 17.792-6.794.647-13.462-.183-20.04-5.195.839 5.87 11.017 11.557 20.573 13.452-.054.757-.09 1.523-.136 2.288-6.406 1.012-13.065.465-18.642-3.135 2.049 5.97 9.836 9.615 18.426 10.445-.01 1.367-.01 2.725.009 4.065-5.974.993-11.983.62-16.62-1.896 5.512 8.221 20.211 11.074 33.9 4.548 5.043-1.595 9.618-4.767 11.242-9.962m-6.655 117.102c-96.56 10.814-60.813-173.577-31.351-194.888 39.31-28.436 60.596 4.689 69.241 44.803 12.877 59.825-4.358 96.14-54.746 89.424.453 2.99-.479 19.057 17.77 17.376 8.346-.782 23.936-3.218 36.226-11.987 5.362-3.835 9.811 12.386.551 29.453-5.561 10.251-11.765 22.92-37.69 25.819M98.663-125.24C89.329-118.537 87.226-96.89 88.227-81c8.88-4.575 22.832-11.27 31.092-22.502 12.02-16.327-8.188-30.707-20.655-21.738M36.337 10.018c4.785.318-9.94 23.574 26.565 32.546 24.431 6.005 51.042-5.96 68.743 5.077 39.093 24.33 20.74 89.703 10.881 86.51-3.491-1.129-1.917-16.515-17.864-19.408-8.873-1.62-26.565 7.297-23.734 15.895 11.505 35.057 60.303 36.276 82.654 92.515 20.37 51.243-13.242 93.77-24.702 112.34-9.064 14.677-14.699 13.184-36.28 9.381-61.263-10.8-107.818 29.953-112.584 108.938-1.24 21.29-9.434 20.545-9.66 3.812C-5.47 291.01 62.332 268.11 53.179 136.18c-2.044-29.589-19.809-66.993-28.14-91.86-7.353-21.945 2.895-34.865 11.298-34.301m112.4 387.779c3.454 26.738-27.93 48.556-46.714 28.115-13.49-14.682.879-20.97.408-30.931-.39-8.056-6.11-13.041-19.31-6.817-24.83 10.335-24.984 96.957-3.309 123.048 7.86 9.45 19.21 6.808 34.259-2.953 19.11-12.421-6.092 114.208-24.178 123.741-1.27-3.682-2.838-7.2-4.642-10.644 5.947-10.69 9.012-21.198 6.98-29.145-1.921 7.364-5.919 15.12-10.905 22.4a134.224 134.224 0 0 0-3.436-5.166c5.322-11.638 7.95-22.848 5.403-28.999-1.677 8.047-5.221 15.866-9.7 23.084-1.033-1.403-2.112-2.789-3.19-4.192 4.822-13.296 7.197-26.401 3.952-30.685-1.442 9.36-4.533 17.407-8.585 24.789-.762-.976-1.532-1.95-2.303-2.935 4.043-15.256 6.074-31.678 1.958-33.61-1.124 11.346-3.336 19.257-6.926 27.222C35.872 554.5 13.063 516.006 27.541 433.53c7.261-41.347 45.336-78.73 83.955-71.667 7.706 1.422 32.745 8.33 37.241 35.934"/></g></g></svg>