<svg width="72" height="44" xmlns="http://www.w3.org/2000/svg"><path d="M51.382 43.428l1.094-.08 1.072-.14 1.065-.19 1.036-.242 1.021-.293 1-.344.978-.388.956-.44.927-.476.899-.527.876-.564.84-.608.811-.644.783-.682.746-.725.717-.754.674-.791.637-.82.601-.85.558-.887.522-.908.47-.937.435-.967.384-.99.34-1.01.29-1.033.24-1.047.188-1.077.137-1.084.08-1.106.029-1.12-.029-1.114-.08-1.098-.137-1.084-.189-1.063-.239-1.047-.29-1.025-.34-1.011-.384-.982-.435-.96-.47-.937-.522-.9-.558-.887-.6-.85-.638-.813-.674-.79-.717-.755-.746-.718-.783-.681-.81-.645-.841-.608-.876-.564-.899-.52-.927-.476-.956-.44-.978-.387-1-.345L55.65.711 54.613.47 53.548.28l-1.072-.14-1.094-.08L50.274.03l-1.101.03-1.094.08-1.072.139-1.057.19-1.036.242-1.022.293-.992.345-.978.388-.949.44-.92.475-.898.52-.87.564-.84.608-.811.645-.775.68-.746.72-.71.753-.674.791-.637.813-.594.85-.558.886-.514.901-.478.938-.428.96-.384.98-.333 1.012-.29 1.025-.238 1.047-.189 1.063-.137 1.084-.08 1.098-.029 1.114.029 1.12.08 1.106.137 1.084.189 1.077.239 1.047.29 1.033.332 1.01.384.99.428.967.478.937.514.908.558.887.594.85.637.82.674.79.71.755.746.725.775.682.811.644.84.608.87.564.898.527.92.477.949.439.978.388.992.344 1.022.293 1.036.242 1.057.19 1.072.14 1.094.08 1.101.03z" fill="#f1ad3d"/><path d="M21.554 43.457l1.101-.029 1.094-.08 1.072-.14 1.057-.19 1.036-.242 1.022-.293.992-.344.978-.388.949-.44.92-.476.898-.527.87-.564.84-.608.81-.644.776-.682.746-.725.71-.754.674-.791.637-.82.594-.85.558-.887.514-.908.478-.937.428-.967.384-.99.333-1.01.29-1.033.238-1.047.189-1.077.137-1.084.08-1.106.03-1.12-.03-1.114-.08-1.098-.137-1.084-.189-1.063-.239-1.047-.29-1.025-.332-1.011-.384-.982-.428-.96-.478-.937-.514-.9-.558-.887-.594-.85-.637-.813-.674-.79-.71-.755-.746-.718-.775-.681-.811-.645-.84-.608-.87-.564-.898-.52-.92-.476-.949-.44-.978-.387-.992-.345-1.022-.293L25.878.47 24.821.28l-1.072-.14-1.094-.08L21.554.03l-1.108.03-1.094.08-1.072.139-1.065.19-1.036.242-1.021.293-1 .345-.978.388-.956.44-.927.475-.898.52-.877.564-.84.608-.812.645-.782.68-.746.72-.717.753-.674.791-.637.813-.601.85-.558.886-.522.901-.47.938-.435.96-.384.98-.34 1.012-.29 1.025-.24 1.047-.188 1.063-.137 1.084-.08 1.098-.029 1.114.03 1.12.079 1.106.137 1.084.189 1.077.239 1.047.29 1.033.34 1.01.384.99.435.967.47.937.522.908.558.887.6.85.638.82.674.79.717.755.746.725.782.682.812.644.84.608.877.564.898.527.927.477.956.439.978.388 1 .344 1.021.293 1.036.242 1.065.19 1.072.14 1.094.08 1.108.03" fill="#d82332"/><path d="M33.4 8.3h11.409V7.17H34.385L33.4 8.3" fill="#f1ad3d"/><path d="M31.69 10.929h13.118V9.8h-12.43l-.688 1.129" fill="#f1ad3d"/><path d="M30.42 13.54h14.393v-1.13H30.927l-.507 1.13" fill="#f1ad3d"/><path d="M29.54 16.159h15.27V15.03H29.902l-.362 1.129" fill="#f1ad3d"/><path d="M30.042 28.839h14.799V27.71H29.68l.362 1.129" fill="#f1ad3d"/><path d="M31.143 31.46h13.705v-1.13H30.6l.543 1.13" fill="#f1ad3d"/><path d="M32.672 34.07H44.84v-1.13H31.94l.732 1.13" fill="#f1ad3d"/><path d="M34.791 36.696h10.055V35.56H33.77l1.021 1.136" fill="#f1ad3d"/><path d="M29.03 18.78h15.784v-1.13h-15.56l-.224 1.13" fill="#f1ad3d"/><path d="M38.65 26.219h6.02V25.09h-5.803l-.217 1.129" fill="#f1ad3d"/><path d="M39.12 23.606h5.541V22.47h-5.324l-.217 1.136" fill="#f1ad3d"/><path d="M28.63 22.47h1.565v1.136h-1.493l-.072-1.136" fill="#f1ad3d"/><path d="M25.705 21.036l-.102-.007-.101-.015-.094-.015-.095-.014-.086-.015-.095-.015-.094-.014-.101-.015-.102-.014-.115-.008-.13-.007-.138-.008h-.153l-.166.008-.189.015-.21.014-.145.022-.137.022-.123.044-.109.044-.102.051-.094.059-.072.073-.065.066-.044.08-.036.081-.014.088v.088l.021.095.03.095.057.096.073.095.144.139.174.11.203.095.217.08.232.074.24.08.238.088.232.096.218.124.202.154.181.183.153.227.116.278.072.33.029.395-.029.462-.051.344-.087.3-.116.279-.144.242-.167.212-.189.183-.202.161-.225.14-.232.11-.239.095-.246.073-.253.058-.247.044-.239.022-.239.015-.225.007h-.311l-.29-.007h-.253l-.24-.008-.217-.007-.195-.014-.174-.015-.167-.022-.152-.015-.137-.03-.138-.02-.123-.038-.123-.029-.116-.044-.116-.044-.123-.044.326-1.618.065.014.08.022.1.03.124.029.13.03.145.029.16.036.174.03.18.029.189.03.196.02.203.023.21.007.21.008h.21l.21-.008.21-.044.167-.059.13-.08.101-.103.073-.102.058-.117.036-.117.029-.11.014-.213-.065-.183-.123-.146-.181-.125-.217-.11-.254-.11-.283-.102-.282-.117-.29-.132-.275-.154-.253-.19-.232-.228-.182-.278-.13-.33-.065-.395.007-.469.037-.285.05-.271.073-.25.086-.234.117-.22.13-.19.152-.183.181-.161.21-.14.232-.117.26-.11.29-.08.327-.066.354-.051.392-.03.427-.007h.268l.246.007.225.008.202.007.182.015.166.015.145.014.13.015.124.014.101.023.094.014.087.015.073.014.065.008.065.014.058.008-.37 1.655" fill="#fffffe"/><path d="M27.427 17.58h2.007l-.297 1.772h1.21l-.262 1.656-1.274-.037-.696 4.087-.007.147.036.124.073.096.094.08.13.051.145.044.16.03.173.014.16-.007.145-.015.13-.022.116-.03.094-.028.065-.022.044-.015.014-.007-.253 1.362-.051.037-.101.058-.051.03-.051.022-.058.022-.065.022-.065.021-.073.023-.072.014-.087.015-.087.014-.094.015-.109.015-.115.014-.124.015h-.55l-.29-.022-.254-.03-.231-.043-.196-.051-.167-.067-.137-.072-.123-.089-.095-.095-.072-.102-.05-.125-.037-.124-.022-.14-.007-.153v-.161l.022-.169.022-.183 1.383-7.991" fill="#fffffe"/><path d="M31.945 23.76l-.022.125-.007.132.015.14.029.138.05.14.058.131.08.14.087.124.101.125.109.11.116.11.13.087.13.08.146.067.145.051.145.03.188.029.181.022.188.021.189.015.188.008h.196l.188-.008.195-.015.196-.029.195-.037.203-.043.196-.066.203-.08.21-.089.203-.117.21-.124-.29 1.801-.232.118-.116.044-.108.043-.109.037-.116.037-.116.03-.123.02-.13.023-.145.015-.152.014-.167.015-.188.007h-.196l-.225.008h-.238l-.356-.008-.362-.036-.362-.051-.362-.088-.355-.11-.34-.14-.326-.183-.305-.212-.282-.249-.246-.3-.21-.337-.174-.388-.123-.433-.08-.49-.022-.542.036-.601.03-.234.043-.271.058-.286.08-.308.108-.315.13-.315.167-.322.203-.307.232-.294.282-.278.319-.25.362-.219.42-.183.471-.131.522-.089.586-.029.283.007.297.03.297.051.297.073.29.11.282.132.26.176.24.205.217.249.181.293.145.337.101.388.058.44.008.498-.05.556-.11.616-.036.446h-5.28l.333-1.443h3.172l.015-.183-.007-.175-.015-.162-.029-.146-.05-.14-.051-.124-.072-.11-.073-.102-.087-.088-.094-.074-.109-.065-.108-.059-.116-.044-.116-.029-.124-.022-.13-.015-.137.008-.13.022-.124.029-.123.044-.123.059-.109.065-.108.08-.095.089-.094.102-.087.11-.08.117-.064.125-.066.132-.05.146-.044.147-.03.154-.289 1.516" fill="#fffffe"/><path d="M49.219 19.791l-.095-.05-.094-.045-.101-.05-.109-.052-.108-.044-.124-.044-.123-.044-.13-.044-.138-.036-.137-.03-.153-.03-.152-.021-.166-.015-.167-.015h-.536l-.188.015-.196.022-.203.037-.202.058-.203.08-.203.104-.203.131-.196.161-.188.19-.181.235-.174.271-.16.323-.151.366-.138.41-.116.469-.044.263-.028.257-.015.256.007.25.022.248.05.234.066.22.08.22.108.198.13.19.153.169.174.153.195.132.225.11.246.095.275.066.094.022.11.023.13.014.144.015.16.014h.347l.182-.014.188-.022.188-.037.182-.051.18-.059.182-.08.166-.096.152-.117.145-.132-.326 1.956-.043.037-.044.043-.058.052-.065.044-.08.058-.101.052-.116.05-.13.045-.167.051-.188.037-.217.03-.254.029-.283.014-.326.007-.369-.007-.405-.022-.334-.037-.333-.073-.333-.11-.333-.146-.319-.176-.305-.22-.29-.256-.267-.293-.24-.33-.202-.366-.174-.41-.13-.447-.087-.49-.029-.52.014-.572.08-.608.058-.3.065-.293.073-.286.072-.27.08-.257.094-.257.094-.241.101-.228.11-.226.108-.213.123-.205.13-.19.13-.184.145-.175.145-.162.153-.153.166-.147.167-.139.174-.124.18-.118.196-.11.196-.095.203-.087.21-.081.224-.073.225-.059.232-.051.246-.044.246-.037.261-.03.26-.014.276-.007.232.007.224.015.218.022.217.03.203.028.195.044.189.037.174.044.166.044.145.044.138.044.116.044.101.036.087.03.065.029.044.015-.362 2.028" fill="#fffffe"/><path d="M67.055 27.19h-2.006l.145-.812v-.074l-.117.147-.122.132-.124.117-.13.102-.13.096-.13.08-.131.066-.138.066-.137.051-.138.037-.138.036-.144.022-.145.023-.138.014-.145.008h-.145l-.376-.03-.348-.08-.319-.125-.29-.168-.26-.213-.232-.249-.203-.27-.174-.308-.145-.33-.116-.344-.08-.36-.058-.373-.021-.373.007-.381.036-.374.066-.373.108-.432.13-.41.153-.374.18-.352.19-.33.217-.292.224-.264.239-.242.254-.212.268-.183.275-.161.275-.125.29-.103.29-.066.29-.043.296-.015.21.007.203.022.189.037.173.051.167.059.145.066.145.08.13.08.116.089.109.095.094.095.087.095.072.095.065.096.058.088.044.087.507-2.878h1.97l-1.637 9.58" fill="#fffffe"/><path d="M63.771 25.417l.203-.015.189-.043.173-.052.167-.08.152-.088.145-.11.138-.124.123-.132.108-.147.102-.161.094-.169.08-.175.072-.183.058-.19.05-.199.037-.197.036-.206.022-.212v-.198l-.007-.205-.022-.19-.03-.183-.05-.176-.058-.168-.072-.147-.087-.14-.094-.116-.109-.103-.123-.088-.13-.058-.138-.037-.152-.015-.196.015-.18.03-.167.058-.167.073-.145.095-.145.118-.123.124-.123.139-.109.161-.101.169-.094.176-.08.19-.072.197-.058.198-.058.213-.044.212-.036.323.015.351.05.36.095.343.144.3.188.242.24.162.29.058" fill="#f1ad3d"/><path d="M19.29 25.564L19 27.19h-1.826l.05-.3.037-.271.029-.205.029-.11-.102.117-.115.117-.138.11-.152.103-.174.102-.181.088-.189.088-.195.073-.21.066-.21.051-.21.044-.217.03-.21.014-.21.007-.204-.022-.195-.029-.253-.066-.232-.073-.203-.095-.181-.11-.16-.117-.145-.132-.115-.14-.102-.146-.087-.153-.072-.162-.058-.16-.044-.162-.029-.168-.021-.169-.015-.161v-.161l.022-.286.043-.271.073-.256.094-.25.116-.234.13-.212.153-.205.173-.183.181-.169.203-.154.21-.138.217-.118.232-.102.24-.081.246-.066.253-.044h.015l.036-.007.05-.007.08-.008.087-.015.102-.007.108-.014.123-.015.124-.015.122-.015.131-.007.116-.014.116-.008.108-.007.102-.007h.246l.174.007.16.007h.159l.13.008.102.007.072.007h.022l.014-.051.044-.132.036-.154.014-.139-.028-.16-.066-.147-.087-.132-.115-.11-.138-.095-.152-.066-.174-.044-.189-.015-.202-.007-.217-.008h-.225l-.232.008-.239.015-.232.021-.232.022-.224.03-.217.029-.21.036-.189.037-.174.037-.16.044-.13.044-.1.05-.08.045.514-1.765.159-.066.16-.059.173-.05.348-.074.188-.03.189-.029.195-.015.203-.014.21-.008.217-.007h.696l.253.007.254.008.203.014.217.037.225.051.231.066.225.088.217.103.218.124.202.14.182.16.159.176.145.198.108.22.073.234.043.25v.278l-.043.293-.732 3.867" fill="#fffffe"/><path d="M17.54 23.652l-.007-.037-.029-.036-.043-.023-.072-.014-.08-.015-.095-.007h-.217l-.115.007-.124.015-.116.014-.116.015-.108.015-.102.022-.087.022-.08.022-.05.015-.058.022-.08.029-.08.036-.093.044-.095.052-.101.05-.094.06-.102.073-.094.073-.087.088-.08.088-.072.095-.05.102-.044.118-.022.117-.007.25.036.197.073.146.094.11.108.074.124.043.115.022.117.007.217-.007.195-.022.189-.03.166-.043.145-.051.138-.066.123-.066.109-.08.094-.074.087-.088.072-.08.058-.088.05-.088.044-.088.037-.08.021-.081.058-.212.05-.242.044-.235.036-.19" fill="#d82332"/><path d="M4.05 27.197H2.08l1.644-9.617H7.15l.326 5.706 2.37-5.706h3.578l-1.68 9.617H9.772l1.246-7.185h-.08l-2.948 7.185H5.767l-.015-.3-.05-.799-.065-1.135-.145-2.615-.065-1.15-.051-.835-.015-.351h-.108L4.05 27.197" fill="#fffffe"/><path d="M55.243 25.564l-.297 1.626h-1.818l.014-.3.007-.264v-.198l.015-.088-.094.11-.109.11-.13.103-.145.102-.152.095-.174.088-.181.088-.181.073-.196.059-.202.058-.204.037-.202.03-.21.014-.203.007-.196-.022-.196-.029-.26-.066-.232-.073-.203-.095-.188-.11-.16-.117-.137-.132-.116-.14-.102-.146-.086-.153-.065-.162-.058-.16-.037-.162-.029-.168-.021-.169-.015-.161v-.161l.015-.286.043-.271.065-.256.094-.25.109-.234.138-.212.152-.205.166-.183.189-.169.195-.154.21-.138.225-.118.224-.102.24-.081.239-.066.246-.044h.014l.036-.007.051-.007.073-.008.094-.015.102-.007.108-.014.116-.015.123-.015.13-.015.124-.007.123-.014.116-.008.101-.007.101-.007h.254l.174.007.167.007h.159l.137.008.116.007.066.007h.029l.014-.051.022-.132.021-.154.015-.139-.03-.16-.057-.147-.094-.132-.109-.11-.13-.095-.152-.066-.16-.044-.173-.015-.203-.007-.218-.008h-.224l-.232.008-.24.015-.23.021-.233.022-.224.03-.218.029-.21.036-.188.037-.174.037-.16.044-.13.044-.1.05-.08.045.506-1.765.16-.066.166-.059.167-.05.174-.038.181-.036.181-.03.188-.029.196-.015.203-.014.21-.008.21-.007h.68l.247.007.246.008.203.014.218.037.224.051.232.066.224.088.225.103.217.124.203.14.181.16.167.176.145.198.108.22.08.234.05.25v.278l-.036.293-.76 3.867" fill="#fffffe"/><path d="M54.944 27.214l.043-.043.297-1.597-.087-.014-.297 1.597.044-.043v.1l.036-.007.007-.036-.043.043" fill="#fffffe"/><path d="M53.077 27.189l.044.048h1.818v-.097h-1.818l.043.049h-.087l-.007.048h.051l-.044-.048" fill="#fffffe"/><g><path d="M53.196 26.366l-.065-.056-.03.112-.006.19v.252l-.015.287h.087l.014-.287.015-.253-.007-.189v-.056l-.065-.056.072.056" fill="#fffffe"/></g><g><path d="M50.38 27.263l.203.029.196.02.202-.006.21-.014.21-.029.203-.035.203-.056.203-.056.181-.07.188-.084.174-.084.152-.098.153-.098.13-.099.116-.112.094-.105-.072-.056-.095.105-.101.098-.13.098-.138.098-.152.085-.348.168-.181.07-.188.056-.203.056-.203.035-.195.028-.21.014-.203.008-.196-.022-.188-.028-.015.084" fill="#fffffe"/></g><g><path d="M48.63 25.09l.007.161.015.161.021.176.03.168.036.162.057.168.066.169.094.153.101.154.116.14.145.139.167.117.188.117.21.095.24.073.26.066.014-.087-.26-.066-.225-.074-.195-.095-.189-.103-.152-.117-.13-.124-.116-.14-.102-.139-.08-.154-.064-.153-.058-.154-.036-.161-.03-.169-.021-.16-.015-.162.007-.161h-.101" fill="#fffffe"/></g><g><path d="M51.23 22.28l-.253.044-.246.066-.24.08-.231.103-.225.117-.217.147-.196.154-.188.175-.174.183-.152.205-.145.22-.109.242-.094.249-.065.264-.043.278-.022.286h.101l.008-.286.043-.264.065-.249.094-.249.109-.227.13-.205.153-.205.159-.183.189-.162.195-.153.203-.132.224-.118.218-.102.239-.08.231-.067.24-.043v-.088" fill="#fffffe"/></g><g><path d="M52.722 22.12h-.08l-.1.014-.102.007-.116.007-.123.014-.123.007-.13.014-.124.014-.116.013-.108.014-.102.007-.094.014-.073.007-.058.007-.028.007h-.015v.084h.015l.043-.007.043-.007.073-.007.094-.014.102-.007.108-.014.116-.014.123-.014.13-.014.124-.007.123-.014.116-.007.101-.007h.181v-.097" fill="#fffffe"/></g><g><path d="M53.698 22.197l.043-.035h-.028l-.066-.007-.116-.007-.137-.014h-.327l-.173-.014h-.174v.097h.347l.167.014h.297l.116.007.066.007h.028l.036.007.008-.042-.087-.013" fill="#fffffe"/></g><g><path d="M53.772 21.74h-.007l-.007.132-.022.14-.021.125-.015.049.087.013.015-.048.021-.126.022-.153.022-.132h-.095" fill="#fffffe"/></g><g><path d="M52.91 21.011v.007l.166.007.153.042.144.063.124.084.101.098.087.12.058.126.029.147h.087l-.03-.16-.057-.155-.101-.134-.116-.112-.138-.098-.16-.063-.166-.042-.181-.021v.091" fill="#fffffe"/></g><g><path d="M49.8 21.339l.072.041.073-.034.094-.05.123-.04.16-.043.173-.035.19-.034.209-.035.21-.028.224-.028.232-.02.232-.022.24-.014h.673l.203.007v-.083l-.203-.007-.217-.014h-.225l-.232.014-.239.014-.232.02-.232.022-.224.027-.224.028-.21.035-.189.035-.174.035-.16.042-.137.041-.108.049-.087.049.072.042-.087-.014" fill="#fffffe"/></g><g><path d="M50.336 19.56l-.029.036-.507 1.733.087.015.507-1.734-.029.036-.029-.086-.021.007-.008.029.03-.036" fill="#fffffe"/></g><g><path d="M53.563 19.221l-.246-.014-.246-.007h-.68l-.211.014-.21.007-.203.014-.195.014-.196.028-.181.028-.181.034-.174.035-.174.05-.167.055-.159.062.03.084.158-.063.167-.056.16-.048.173-.035.182-.035.18-.028.182-.028.195-.013.203-.014.21-.007h.89l.247.007h.246v-.084" fill="#fffffe"/></g><g><path d="M56.045 21.703l.036-.3v-.279l-.05-.256-.08-.242-.116-.227-.145-.205-.174-.183-.18-.161-.211-.14-.218-.13-.231-.104-.225-.088-.239-.065-.224-.052-.225-.036-.203-.015v.088l.203.015.21.036.224.051.225.066.225.088.217.103.218.117.195.14.181.16.16.169.144.19.102.213.08.227.05.241v.279l-.036.285.087.015" fill="#fffffe"/></g><g><path d="M55.287 25.572l.76-3.868-.087-.014-.76 3.867.087.015" fill="#fffffe"/></g><g><path d="M53.473 23.615l-.03-.036-.05-.022-.073-.022-.08-.008-.093-.007h-.109l-.109.007-.115.015-.117.015-.115.014-.11.015-.108.022-.094.015-.094.021-.073.015-.05.008-.058.022-.072.021-.08.03-.095.044-.087.044-.1.051-.19.132-.094.08-.079.08-.08.096-.065.103-.05.11-.044.117-.022.124-.007.25.036.197.058.146.087.11.109.074.123.044.123.021.123.008.217-.008.203-.021.189-.037.166-.051.16-.059.137-.066.13-.073.117-.088.1-.08.088-.096.08-.087.065-.096.05-.088.037-.088.029-.088.021-.08.03-.205.035-.213.03-.205.014-.183z" fill="#f1ad3d"/></g><g><path d="M68.41 26.147l.015-.162.057-.19.102-.167.123-.147.152-.12.174-.084.189-.056.202-.021.203.021.188.056.174.084.152.12.123.147.102.168.058.19.014.16h-.217l-.007-.125-.044-.155-.072-.14-.094-.12-.116-.097-.138-.07-.16-.05-.166-.014-.166.014-.16.05-.137.07-.116.098-.094.12-.073.14-.043.154-.015.126h-.21" fill="#fffffe"/></g><g><path d="M69.06 26.168v-.418h.399l.086.007.08.014.058.02.05.028.037.042.029.042.014.049.008.048-.008.063-.014.05-.022.04-.014.015h-.305l.03-.007.05-.007.044-.014.036-.014.029-.02.014-.022.015-.035V26l-.008-.034-.014-.028-.022-.014-.022-.014-.036-.007-.036-.007h-.297v.272h-.181" fill="#fffffe"/></g><g><path d="M68.407 26.19l-.007.042.022.203.058.19.101.168.124.14.151.12.174.09.189.057.202.02.203-.02.189-.057.173-.09.153-.12.123-.14.101-.168.058-.19.022-.203-.008-.042h-.217l.008.042-.015.168-.043.155-.073.133-.094.119-.116.098-.138.077-.159.05-.167.013-.166-.014-.16-.049-.137-.077-.116-.098-.094-.12-.073-.132-.043-.155-.015-.168v-.042h-.21" fill="#fffffe"/></g><g><path d="M69.06 26.19v.425h.181v-.349h.181l.217.349h.145l-.217-.349h.05l.051-.013.044-.014.036-.028.015-.021h-.305l-.036.007h-.181v-.007h-.181" fill="#fffffe"/></g><g><path d="M55.78 27.195h2.042l.732-4.167.029-.162.087-.322.058-.16.072-.162.087-.154.094-.146.117-.14.13-.124.145-.117.167-.11.188-.088.21-.073.232-.059.253-.044.282-.014h.182l.326-1.883-.203.015-.196.022-.181.036-.174.051-.159.059-.152.073-.145.081-.138.088-.13.102-.123.103-.232.234-.109.125-.108.14-.11.131-.1.146.217-1.325h-2.036l-1.354 7.844" fill="#fffffe"/></g><g><path d="M36.6 27.195h2.079l.695-4.167.03-.162.035-.153.037-.154.05-.147.058-.146.073-.14.087-.131.101-.125.116-.11.13-.11.16-.087.174-.08.202-.067.225-.058.246-.037.283-.022h.021l.03.007.036.007h.036l.036.008.03.007.02.008h.008l.007-.03.022-.088.029-.131.036-.161.051-.19.05-.206.066-.205.065-.205.058-.14.145-.278.072-.124.066-.11.05-.088.036-.051.015-.022h-.007l-.03-.008-.036-.007-.05-.007h-.05l-.059-.008-.05-.007h-.051l-.225.015-.203.022-.188.036-.174.045-.167.058-.152.073-.137.073-.13.088-.124.095-.116.11-.108.11-.109.125-.109.124-.1.14-.218.292.26-1.325h-2.078L36.6 27.195" fill="#fffffe"/></g><g><path d="M68.42 34.868v-.028l.058-.182.102-.161.123-.14.152-.113.173-.084.189-.049.203-.021.202.021.189.05.173.083.153.113.123.14.102.161.057.182v.028h-.21l-.043-.147-.073-.133-.094-.12-.116-.097-.137-.078-.16-.049-.166-.014-.167.014-.16.05-.137.077-.116.098-.094.119-.072.133-.044.147h-.21" fill="#f1ad3d"/></g><g><path d="M68.4 35.053l.022-.153h.21v.007l-.015.146H68.4" fill="#f1ad3d"/></g><g><path d="M69.06 35.053V34.9h.181v.14h.181l.065-.015.05-.006.045-.014.036-.014.029-.021.014-.021.015-.035V34.9h.145l-.008.049-.014.042-.022.034-.029.028h-.688" fill="#f1ad3d"/></g><g><path d="M70.225 35.053l-.015-.146V34.9h.21l.022.153h-.217" fill="#f1ad3d"/></g><g><path d="M68.4 35.06v.021l.022.203.058.19.101.168.124.147.151.12.174.084.189.056.202.02.203-.02.189-.056.173-.085.153-.119.123-.147.101-.168.058-.19.022-.203v-.021h-.217v.021l-.015.168-.043.154-.073.134-.094.119-.116.098-.138.077-.159.05-.167.013-.166-.014-.16-.049-.137-.077-.116-.098-.094-.12-.073-.133-.043-.154-.015-.168v-.021H68.4" fill="#f1ad3d"/></g><g><path d="M69.06 35.06v.404h.181v-.348h.181l.217.348h.145l-.217-.348h.05l.051-.014.044-.014.036-.028h-.688" fill="#f1ad3d"/></g></svg>